<mxfile host="app.diagrams.net" modified="2021-04-20T08:52:55.557Z" agent="5.0 (Windows)" etag="yk73dLeTe4nnUFlYmbhg" version="14.5.8" type="github">
  <diagram id="dA-htqWuj_GwU31vitIK" name="Page-1">
    <mxGraphModel dx="1422" dy="763" grid="1" gridSize="10" guides="1" tooltips="1" connect="1" arrows="1" fold="1" page="1" pageScale="1" pageWidth="827" pageHeight="1169" math="0" shadow="0">
      <root>
        <mxCell id="0" />
        <mxCell id="1" parent="0" />
        <mxCell id="vOs-ge64XPe_B2tfVnpc-35" value="" style="group" vertex="1" connectable="0" parent="1">
          <mxGeometry x="57" y="175" width="210" height="120" as="geometry" />
        </mxCell>
        <mxCell id="vOs-ge64XPe_B2tfVnpc-26" value="" style="rounded=1;whiteSpace=wrap;html=1;dashed=1;strokeWidth=2;" vertex="1" parent="vOs-ge64XPe_B2tfVnpc-35">
          <mxGeometry width="210" height="120" as="geometry" />
        </mxCell>
        <mxCell id="vOs-ge64XPe_B2tfVnpc-27" value="&lt;font style=&quot;font-size: 14px&quot;&gt;&lt;b&gt;Bakkestasjon&lt;/b&gt;&lt;/font&gt;" style="text;html=1;strokeColor=none;fillColor=none;align=center;verticalAlign=middle;whiteSpace=wrap;rounded=0;" vertex="1" parent="vOs-ge64XPe_B2tfVnpc-35">
          <mxGeometry x="45" width="120" height="20" as="geometry" />
        </mxCell>
        <mxCell id="vOs-ge64XPe_B2tfVnpc-34" value="" style="group" vertex="1" connectable="0" parent="1">
          <mxGeometry x="580" y="180" width="210" height="125" as="geometry" />
        </mxCell>
        <mxCell id="vOs-ge64XPe_B2tfVnpc-28" value="" style="rounded=1;whiteSpace=wrap;html=1;dashed=1;strokeWidth=2;" vertex="1" parent="vOs-ge64XPe_B2tfVnpc-34">
          <mxGeometry width="210" height="125.00000000000001" as="geometry" />
        </mxCell>
        <mxCell id="vOs-ge64XPe_B2tfVnpc-29" value="&lt;b&gt;&lt;font style=&quot;font-size: 14px&quot;&gt;Utskytningsenhet&lt;/font&gt;&lt;/b&gt;" style="text;html=1;strokeColor=none;fillColor=none;align=center;verticalAlign=middle;whiteSpace=wrap;rounded=0;" vertex="1" parent="vOs-ge64XPe_B2tfVnpc-34">
          <mxGeometry x="45" width="120" height="20.833333333333336" as="geometry" />
        </mxCell>
        <mxCell id="vOs-ge64XPe_B2tfVnpc-32" value="" style="rounded=1;whiteSpace=wrap;html=1;dashed=1;strokeWidth=2;" vertex="1" parent="1">
          <mxGeometry x="590" y="415" width="210" height="120" as="geometry" />
        </mxCell>
        <mxCell id="vOs-ge64XPe_B2tfVnpc-33" value="&lt;b&gt;&lt;font style=&quot;font-size: 14px&quot;&gt;Drone&lt;/font&gt;&lt;/b&gt;" style="text;html=1;strokeColor=none;fillColor=none;align=center;verticalAlign=middle;whiteSpace=wrap;rounded=0;" vertex="1" parent="1">
          <mxGeometry x="635" y="415" width="120" height="20" as="geometry" />
        </mxCell>
        <mxCell id="vOs-ge64XPe_B2tfVnpc-30" value="" style="rounded=1;whiteSpace=wrap;html=1;dashed=1;strokeWidth=2;" vertex="1" parent="1">
          <mxGeometry x="57" y="320" width="210" height="120" as="geometry" />
        </mxCell>
        <mxCell id="vOs-ge64XPe_B2tfVnpc-31" value="&lt;b&gt;&lt;font style=&quot;font-size: 14px&quot;&gt;Drone&lt;/font&gt;&lt;/b&gt;" style="text;html=1;strokeColor=none;fillColor=none;align=center;verticalAlign=middle;whiteSpace=wrap;rounded=0;" vertex="1" parent="1">
          <mxGeometry x="102" y="320" width="120" height="20" as="geometry" />
        </mxCell>
        <mxCell id="vOs-ge64XPe_B2tfVnpc-1" value="" style="edgeStyle=orthogonalEdgeStyle;curved=1;orthogonalLoop=1;jettySize=auto;html=1;strokeColor=#000000;" edge="1" parent="1" source="vOs-ge64XPe_B2tfVnpc-2" target="vOs-ge64XPe_B2tfVnpc-4">
          <mxGeometry relative="1" as="geometry" />
        </mxCell>
        <mxCell id="vOs-ge64XPe_B2tfVnpc-2" value="MicroRTPS / PX4" style="ellipse;whiteSpace=wrap;html=1;" vertex="1" parent="1">
          <mxGeometry x="615" y="440" width="160" height="85" as="geometry" />
        </mxCell>
        <mxCell id="vOs-ge64XPe_B2tfVnpc-19" style="edgeStyle=orthogonalEdgeStyle;curved=1;orthogonalLoop=1;jettySize=auto;html=1;exitX=0;exitY=0.5;exitDx=0;exitDy=0;entryX=0.425;entryY=1.018;entryDx=0;entryDy=0;entryPerimeter=0;" edge="1" parent="1" source="vOs-ge64XPe_B2tfVnpc-4" target="vOs-ge64XPe_B2tfVnpc-6">
          <mxGeometry relative="1" as="geometry" />
        </mxCell>
        <mxCell id="vOs-ge64XPe_B2tfVnpc-4" value="&lt;div&gt;/&lt;span class=&quot;pl-s&quot;&gt;SensorCombined_PubSubTopic&lt;span class=&quot;pl-pds&quot;&gt;&lt;/span&gt;&lt;/span&gt;&lt;/div&gt;_use(n)_drone(01-10)" style="rounded=0;whiteSpace=wrap;html=1;" vertex="1" parent="1">
          <mxGeometry x="321" y="450" width="206" height="55" as="geometry" />
        </mxCell>
        <mxCell id="vOs-ge64XPe_B2tfVnpc-20" style="edgeStyle=orthogonalEdgeStyle;curved=1;orthogonalLoop=1;jettySize=auto;html=1;exitX=1;exitY=0.5;exitDx=0;exitDy=0;" edge="1" parent="1" source="vOs-ge64XPe_B2tfVnpc-6" target="vOs-ge64XPe_B2tfVnpc-8">
          <mxGeometry relative="1" as="geometry" />
        </mxCell>
        <mxCell id="vOs-ge64XPe_B2tfVnpc-6" value="&lt;div&gt;SensorCombinedListener_&lt;/div&gt;&lt;div&gt;use(n)_drone(01-10)&lt;/div&gt;" style="ellipse;whiteSpace=wrap;html=1;" vertex="1" parent="1">
          <mxGeometry x="82" y="342.5" width="160" height="85" as="geometry" />
        </mxCell>
        <mxCell id="vOs-ge64XPe_B2tfVnpc-7" value="" style="edgeStyle=orthogonalEdgeStyle;curved=1;orthogonalLoop=1;jettySize=auto;html=1;strokeColor=#000000;" edge="1" parent="1" source="vOs-ge64XPe_B2tfVnpc-8" target="vOs-ge64XPe_B2tfVnpc-10">
          <mxGeometry relative="1" as="geometry" />
        </mxCell>
        <mxCell id="vOs-ge64XPe_B2tfVnpc-8" value="&lt;div&gt;/sensordata_use(n)_drone(01-10)&lt;/div&gt;" style="rounded=0;whiteSpace=wrap;html=1;" vertex="1" parent="1">
          <mxGeometry x="318" y="360" width="209" height="50" as="geometry" />
        </mxCell>
        <mxCell id="vOs-ge64XPe_B2tfVnpc-24" style="edgeStyle=orthogonalEdgeStyle;curved=1;orthogonalLoop=1;jettySize=auto;html=1;entryX=1;entryY=0.25;entryDx=0;entryDy=0;" edge="1" parent="1" source="vOs-ge64XPe_B2tfVnpc-10" target="vOs-ge64XPe_B2tfVnpc-12">
          <mxGeometry relative="1" as="geometry">
            <Array as="points">
              <mxPoint x="620" y="175" />
            </Array>
          </mxGeometry>
        </mxCell>
        <mxCell id="vOs-ge64XPe_B2tfVnpc-10" value="&lt;div&gt;sensordata_parse_transfer_&lt;/div&gt;&lt;div&gt;_use(n)_drone(01-10)&lt;/div&gt;" style="ellipse;whiteSpace=wrap;html=1;" vertex="1" parent="1">
          <mxGeometry x="605" y="205" width="160" height="85" as="geometry" />
        </mxCell>
        <mxCell id="vOs-ge64XPe_B2tfVnpc-23" style="edgeStyle=orthogonalEdgeStyle;curved=1;orthogonalLoop=1;jettySize=auto;html=1;exitX=0;exitY=0.25;exitDx=0;exitDy=0;entryX=1;entryY=0;entryDx=0;entryDy=0;" edge="1" parent="1" source="vOs-ge64XPe_B2tfVnpc-12" target="vOs-ge64XPe_B2tfVnpc-13">
          <mxGeometry relative="1" as="geometry">
            <Array as="points">
              <mxPoint x="219" y="175" />
            </Array>
          </mxGeometry>
        </mxCell>
        <mxCell id="vOs-ge64XPe_B2tfVnpc-12" value="/selected_sensor_data_use(n)" style="rounded=0;whiteSpace=wrap;html=1;direction=east;" vertex="1" parent="1">
          <mxGeometry x="320" y="160" width="205" height="60" as="geometry" />
        </mxCell>
        <mxCell id="vOs-ge64XPe_B2tfVnpc-36" style="edgeStyle=orthogonalEdgeStyle;curved=1;orthogonalLoop=1;jettySize=auto;html=1;exitX=1;exitY=1;exitDx=0;exitDy=0;entryX=0;entryY=0.5;entryDx=0;entryDy=0;" edge="1" parent="1" source="vOs-ge64XPe_B2tfVnpc-13" target="vOs-ge64XPe_B2tfVnpc-15">
          <mxGeometry relative="1" as="geometry">
            <Array as="points">
              <mxPoint x="219" y="290" />
            </Array>
          </mxGeometry>
        </mxCell>
        <mxCell id="vOs-ge64XPe_B2tfVnpc-13" value="bs_sensordata" style="ellipse;whiteSpace=wrap;html=1;direction=east;" vertex="1" parent="1">
          <mxGeometry x="82" y="200" width="160" height="82.5" as="geometry" />
        </mxCell>
        <mxCell id="vOs-ge64XPe_B2tfVnpc-14" value="&lt;font style=&quot;font-size: 23px&quot;&gt;&lt;b&gt;Drone data/info ROS2 node/topic scheme&lt;/b&gt;&lt;/font&gt;" style="text;html=1;strokeColor=none;fillColor=none;align=center;verticalAlign=middle;whiteSpace=wrap;rounded=0;" vertex="1" parent="1">
          <mxGeometry x="251.25" y="90" width="342.5" height="40" as="geometry" />
        </mxCell>
        <mxCell id="vOs-ge64XPe_B2tfVnpc-25" style="edgeStyle=orthogonalEdgeStyle;curved=1;orthogonalLoop=1;jettySize=auto;html=1;exitX=1;exitY=0.75;exitDx=0;exitDy=0;entryX=0.425;entryY=1.006;entryDx=0;entryDy=0;entryPerimeter=0;" edge="1" parent="1" source="vOs-ge64XPe_B2tfVnpc-15" target="vOs-ge64XPe_B2tfVnpc-10">
          <mxGeometry relative="1" as="geometry">
            <Array as="points">
              <mxPoint x="525" y="320" />
              <mxPoint x="668" y="320" />
            </Array>
          </mxGeometry>
        </mxCell>
        <mxCell id="vOs-ge64XPe_B2tfVnpc-15" value="/fetch_sensor_data_use(n)" style="rounded=0;whiteSpace=wrap;html=1;direction=east;" vertex="1" parent="1">
          <mxGeometry x="320" y="260" width="205" height="60" as="geometry" />
        </mxCell>
      </root>
    </mxGraphModel>
  </diagram>
</mxfile>
